<svg xmlns="http://www.w3.org/2000/svg" width="512" height="512" viewBox="0 0 512 512" version="1.1"><path d="M 282.495 261.840 C 277.677 264.778, 266.334 277.660, 259.418 288.049 C 242.316 313.739, 235.894 335.840, 230.467 387.682 C 229.754 394.485, 228.690 396.443, 225.128 397.505 C 223.116 398.105, 221.848 397.259, 216.788 391.941 C 206.186 380.799, 197.124 366.424, 191.898 352.457 C 187.920 341.825, 182.445 341.413, 176.215 351.277 C 167.033 365.815, 159.588 384.338, 156.324 400.759 C 153.723 413.846, 153.964 436.748, 156.824 448.340 C 159.645 459.772, 164.094 470.812, 169.251 479.174 L 173.366 485.848 183.933 488.883 C 206.885 495.475, 219.407 497, 250.581 497 C 298.199 497, 320.872 493.289, 343.922 481.723 C 350.211 478.567, 350.402 478.352, 353.100 471.403 C 359.140 455.847, 361.226 436.220, 358.635 419.321 C 355.240 397.181, 345.936 374.941, 326.502 342.511 C 308.216 311.996, 298.789 291.805, 294.295 273.532 C 291.930 263.915, 289.711 259.994, 286.639 260.004 C 286.013 260.006, 284.148 260.832, 282.495 261.840" stroke="none" fill="#fcd354" fill-rule="evenodd"/><path d="M 220.743 15.590 C 219.455 16.878, 219.914 19.707, 222.958 29.238 C 230.034 51.397, 229.350 75.233, 220.915 100.415 C 213.829 121.570, 201.153 141.111, 186.698 153.163 C 174.659 163.200, 169.691 158.641, 163.590 131.950 C 162.778 128.403, 161.806 122.688, 161.428 119.250 C 161.051 115.813, 160.316 113, 159.796 113 C 159.276 113, 153.803 118.063, 147.633 124.250 C 118.217 153.751, 107.187 184.567, 114.028 218.135 C 115.143 223.607, 118.487 235.828, 121.459 245.292 C 129.391 270.548, 131.208 278.368, 131.756 289.607 C 132.319 301.140, 131.309 305.439, 126.844 310.525 C 121.282 316.859, 112.324 317.551, 107.658 312.005 C 104.898 308.725, 104.821 308.532, 94.757 279.725 C 90.766 268.299, 87.050 258.902, 86.500 258.844 C 84.615 258.645, 75.938 289.710, 72.351 309.500 C 70.921 317.393, 70.541 324.661, 70.548 344 C 70.555 365.500, 70.823 369.686, 72.731 378.183 C 77.038 397.362, 84.389 414.732, 93.814 428 C 108.417 448.557, 133.024 468.053, 158.678 479.392 C 174.070 486.194, 173.687 486.215, 169.066 478.820 C 164.111 470.891, 159.643 459.766, 156.824 448.340 C 153.964 436.748, 153.723 413.846, 156.324 400.759 C 159.588 384.338, 167.033 365.815, 176.215 351.277 C 182.445 341.413, 187.920 341.825, 191.898 352.457 C 197.124 366.424, 206.186 380.799, 216.788 391.941 C 221.848 397.259, 223.116 398.105, 225.128 397.505 C 228.690 396.443, 229.754 394.485, 230.467 387.682 C 233.512 358.586, 237.297 336.926, 241.547 324.267 C 248.005 305.028, 260.286 284.239, 273.479 270.215 C 286.675 256.188, 290.079 256.670, 294.161 273.140 C 295.573 278.838, 297.962 286.650, 299.471 290.500 C 304.078 302.260, 315.164 323.591, 326.502 342.511 C 332.431 352.405, 339.908 365.826, 343.116 372.336 C 353.310 393.017, 359.988 417.623, 359.988 434.500 C 359.988 446.776, 356.587 463.090, 351.461 475.402 C 350.764 477.077, 351.258 476.983, 355.584 474.617 C 370.065 466.698, 392.088 448.340, 405.669 432.867 C 423.763 412.253, 433.216 394.736, 439.056 371 C 442.346 357.630, 442.377 335.161, 439.126 320.042 C 428.868 272.333, 399.636 219.901, 362.178 182.026 C 349.893 169.603, 349.814 169.580, 348.598 178.015 C 347.386 186.429, 341.722 191.982, 334.339 191.993 C 330.925 191.999, 329.718 191.453, 327.615 188.955 C 324.214 184.912, 323.463 181.357, 322.132 163 C 320.474 140.129, 316.329 122.928, 307.806 103.559 C 293.110 70.156, 265.838 39.187, 234.461 20.269 C 227.403 16.014, 222.121 14.212, 220.743 15.590" stroke="none" fill="#fc5454" fill-rule="evenodd"/></svg>